<svg xmlns="http://www.w3.org/2000/svg" width="64" height="64" viewBox="0 0 64 64" aria-hidden="true">
  <defs>
    <linearGradient id="grad" x1="0" x2="1" y1="0" y2="1">
      <stop offset="0%" stop-color="#2f7a4a"/>
      <stop offset="100%" stop-color="#3a8f6b"/>
    </linearGradient>
  </defs>
  <circle cx="32" cy="32" r="30" fill="url(#grad)" />
  <path d="M32 18c8 0 14 5 14 12 0 .8-.1 1.6-.2 2.4H33v6h8.7C40 43 36.5 46 32 46c-8 0-14-6-14-14s6-14 14-14zm0 6c-4.5 0-8 3.5-8 8s3.5 8 8 8c3.8 0 6.8-2.3 7.7-5.6H33v-6h14.4C46.9 21.9 40.1 24 32 24z" fill="#fff"/>
  <title>Continue with Google (placeholder icon)</title>
</svg>